<?xml version="1.0" encoding="utf-8"?>
<svg viewBox="163.897 156.075 199.439 143.934" xmlns="http://www.w3.org/2000/svg">
  <defs>
    <style type="text/css">
	.st0{fill:#12033C;}
	.st1{fill:none;stroke:#FFFFFF;stroke-width:13.0089;stroke-linecap:round;stroke-linejoin:round;stroke-miterlimit:10;}
	.st2{fill:#FFFFFF;}
</style>
  </defs>
  <rect style="stroke: rgb(0, 0, 0);" x="163.897" y="156.075" width="199.439" height="143.934" rx="30" ry="30" transform="matrix(1, 0, 0, 1, 0, 2.842170943040401e-14)"/>
  <path class="st1" d="M 355.38 177.01 C 355.38 177.01 347.3 192.78 323.41 196.54 C 289.16 201.92 284.23 216.57 284.23 216.57" transform="matrix(1, 0, 0, 1, 0, 2.842170943040401e-14)"/>
  <path class="st1" d="M 172.63 178.27 C 172.63 178.27 180.98 193.9 204.94 197.23 C 239.28 202 244.47 216.56 244.47 216.56" transform="matrix(1, 0, 0, 1, 0, 2.842170943040401e-14)"/>
  <path class="st2" d="M 265.27 294.28 C 265.27 294.28 275.13 279.21 275.69 270.09 C 276.25 260.97 270.48 252.79 265.46 252.79 C 260.44 252.79 253.18 261.91 254.48 270.46 C 255.78 279.03 265.27 294.28 265.27 294.28 Z" transform="matrix(1, 0, 0, 1, 0, 2.842170943040401e-14)"/>
  <g transform="matrix(1, 0, 0, 1, 0, 1.0000000000000284)">
    <path class="st2" d="M338.78,206.58c20.18,31.2,13.94,63.8-16.83,84.71c-5.07,3.3-10.18-3.8-5.42-7.55 c10.94-8.09,20.26-18.95,22.44-32.58c2.2-13.04-2.44-26.99-9.99-37.65C324.43,206.84,333.98,200.04,338.78,206.58L338.78,206.58z"/>
  </g>
  <path class="st2" d="M 264.37 218.74 C 264.37 218.74 257.95 202.83 246.51 195.3 C 236.49 188.7 229.69 187.18 226.04 186 C 218.6 183.58 220.83 178.56 227.53 175.95 C 234.23 173.35 249.11 169.25 263.25 169.62 C 277.39 169.99 288.55 170.74 297.11 174.83 C 305.67 178.92 313.48 183.57 298.6 186.36 C 287.94 188.36 285.76 191.01 277.39 197.89 C 270.85 203.28 264.37 218.74 264.37 218.74 Z" transform="matrix(1, 0, 0, 1, 0, 2.842170943040401e-14)"/>
  <path class="st2" d="M 249.95 235.67 C 249.95 246.25 241.79 254.83 231.72 254.83 C 221.65 254.83 213.49 246.25 213.49 235.67 C 213.49 229.3 216.45 223.65 221 220.17 C 221.8 219.56 222.64 219.02 223.53 218.55 C 225.99 217.24 249.56 231.65 249.64 232.11 C 249.84 233.26 249.95 234.45 249.95 235.67 Z" transform="matrix(1, 0, 0, 1, 0, 2.842170943040401e-14)"/>
  <ellipse class="st0" cx="234.32" cy="233.72" rx="9.3" ry="9.77" transform="matrix(1, 0, 0, 1, 0, 2.842170943040401e-14)"/>
  <path class="st0" d="M 214.6 220.6 C 216.09 220.97 259.25 238.83 259.25 238.83 L 252.09 228.6 L 223.07 215.39 L 214.6 220.6 Z" transform="matrix(1, 0, 0, 1, 0, 2.842170943040401e-14)"/>
  <path class="st2" d="M 278.6 235.67 C 278.6 246.25 286.76 254.83 296.83 254.83 C 306.9 254.83 315.06 246.25 315.06 235.67 C 315.06 229.19 312 223.47 307.32 220 C 306.5 219.39 278.97 231.7 278.87 232.32 C 278.69 233.41 278.6 234.53 278.6 235.67 Z" transform="matrix(1, 0, 0, 1, 0, 2.842170943040401e-14)"/>
  <ellipse class="st0" cx="294.23" cy="233.72" rx="9.3" ry="9.77" transform="matrix(1, 0, 0, 1, 0, 2.842170943040401e-14)"/>
  <path class="st0" d="M 313.95 220.6 C 312.46 220.97 269.3 238.83 269.3 238.83 L 273.25 231.27 L 303.89 216.5 L 313.95 220.6 Z" transform="matrix(1, 0, 0, 1, 0, 2.842170943040401e-14)"/>
  <g transform="matrix(-1.027919054031372, 0, 0, 1, 536.41650390625, 2.676460981369047)" style="">
    <path class="st2" d="M338.78,206.58c20.18,31.2,13.94,63.8-16.83,84.71c-5.07,3.3-10.18-3.8-5.42-7.55 c10.94-8.09,20.26-18.95,22.44-32.58c2.2-13.04-2.44-26.99-9.99-37.65C324.43,206.84,333.98,200.04,338.78,206.58L338.78,206.58z"/>
  </g>
</svg>