<?xml version="1.0" encoding="utf-8"?>
<!-- Generator: Adobe Illustrator 28.0.0, SVG Export Plug-In . SVG Version: 6.00 Build 0)  -->
<svg version="1.1" id="Layer_1" xmlns="http://www.w3.org/2000/svg" xmlns:xlink="http://www.w3.org/1999/xlink" x="0px" y="0px" height="2778" width="1284"
	 viewBox="-376 -1113 1284 2778" style="enable-background:new 0 0 540 720;" xml:space="preserve">
<style type="text/css">
	.st0{fill:#12033C;}
	.st1{fill:none;stroke:#FFFFFF;stroke-width:13.0089;stroke-linecap:round;stroke-linejoin:round;stroke-miterlimit:10;}
	.st2{fill:#FFFFFF;}
</style>
<rect x="-376" y="-1113" class="st0" width="1284" height="2778"/>
<path class="st1" d="M355.38,176.01c0,0-8.08,15.77-31.97,19.53c-34.25,5.38-39.18,20.03-39.18,20.03"/>
<path class="st1" d="M172.63,177.27c0,0,8.35,15.63,32.31,18.96c34.34,4.77,39.53,19.33,39.53,19.33"/>
<g>
	<path class="st2" d="M343.57,265.8c5.59,6.83,8.56,15.58,9.9,24.15c3.51,24.57-6.62,48.44-19.57,68.6
		c-3.69,5.37-11.72,0.38-8.47-5.32c7.67-12.47,13.99-26.12,16.47-40.49c1.75-10.44,1.38-21.09-2.57-30.79
		c-1.18-2.86-2.76-5.81-4.63-8.07C329.55,267.85,338,260.11,343.57,265.8L343.57,265.8z"/>
</g>
<path class="st2" d="M265.27,293.28c0,0,9.86-15.07,10.42-24.19c0.56-9.12-5.21-17.3-10.23-17.3s-12.28,9.12-10.98,17.67
	C255.78,278.03,265.27,293.28,265.27,293.28z"/>
<g>
	<path class="st2" d="M198.37,211.07c-7.53,17.43-13.71,40.46-3.14,57.75c9.22,13.68,25.09,18.16,39.38,26.02
		c13.2,6.72,26.13,15.33,36.63,26.05c10.55,10.58,19.92,23.05,26.34,36.56c3.87,7.98,6.94,16.44,8.66,25.18
		c0.25,1.36,0.49,2.65,0.64,4.07c0.29,2.82-1.76,5.35-4.58,5.64c-2.83,0.3-5.33-1.78-5.64-4.57c-1.55-8.9-4.79-17.44-8.83-25.52
		c-10.39-20.57-26.62-38.31-46.2-50.52c-8.01-5.05-16.48-9.15-25.03-13.45c-8.97-4.56-18.48-9.6-25.47-17.24
		c-15.14-16.19-13.31-40.68-5.49-59.8c1.9-4.75,4-9.15,6.7-13.57c1-1.63,3.14-2.15,4.77-1.15
		C198.65,207.48,199.18,209.47,198.37,211.07L198.37,211.07z"/>
</g>
<g>
	<path class="st2" d="M203.85,282.28c-2.1,14.6,3.48,30.01,14.77,39.61c4.02,3.56,8.65,6.88,12.8,10.31
		c18.94,15.04,34.91,31.15,38.77,56.16c0.75,5.4-7.03,6.9-8.28,1.52c-1.02-5.18-2.56-10.19-4.75-14.9
		c-6.78-14.67-19.18-24.87-32.04-34.75c-4.36-3.4-9.19-6.68-13.44-10.26c-13.26-10.68-20.69-27.94-20.06-44.92
		c0.07-1.7,0.15-3.24,0.44-4.98C193.7,272.2,205.14,274.31,203.85,282.28L203.85,282.28z"/>
</g>
<g>
	<path class="st2" d="M177.44,299.37c8.62,25.74,26.37,46.41,42.94,67.32c2.53,3.03,5.03,6.15,7.32,9.68
		c-22.94-8.83-42.14-28.6-49.4-52.23C176.11,316.16,174.88,307.41,177.44,299.37L177.44,299.37z"/>
</g>
<g>
	<path class="st2" d="M338.78,206.58c20.18,31.2,13.94,63.8-16.83,84.71c-5.07,3.3-10.18-3.8-5.42-7.55
		c10.94-8.09,20.26-18.95,22.44-32.58c2.2-13.04-2.44-26.99-9.99-37.65C324.43,206.84,333.98,200.04,338.78,206.58L338.78,206.58z"
		/>
</g>
<path class="st2" d="M264.37,217.74c0,0-6.42-15.91-17.86-23.44c-10.02-6.6-16.82-8.12-20.47-9.3c-7.44-2.42-5.21-7.44,1.49-10.05
	c6.7-2.6,21.58-6.7,35.72-6.33c14.14,0.37,25.3,1.12,33.86,5.21c8.56,4.09,16.37,8.74,1.49,11.53c-10.66,2-12.84,4.65-21.21,11.53
	C270.85,202.28,264.37,217.74,264.37,217.74z"/>
<path class="st2" d="M249.95,234.67c0,10.58-8.16,19.16-18.23,19.16c-10.07,0-18.23-8.58-18.23-19.16c0-6.37,2.96-12.02,7.51-15.5
	c0.8-0.61,1.64-1.15,2.53-1.62c2.46-1.31,26.03,13.1,26.11,13.56C249.84,232.26,249.95,233.45,249.95,234.67z"/>
<ellipse class="st0" cx="234.32" cy="232.72" rx="9.3" ry="9.77"/>
<path class="st0" d="M214.6,219.6c1.49,0.37,44.65,18.23,44.65,18.23l-7.16-10.23l-29.02-13.21L214.6,219.6z"/>
<path class="st2" d="M278.6,234.67c0,10.58,8.16,19.16,18.23,19.16s18.23-8.58,18.23-19.16c0-6.48-3.06-12.2-7.74-15.67
	c-0.82-0.61-28.35,11.7-28.45,12.32C278.69,232.41,278.6,233.53,278.6,234.67z"/>
<ellipse class="st0" cx="294.23" cy="232.72" rx="9.3" ry="9.77"/>
<path class="st0" d="M313.95,219.6c-1.49,0.37-44.65,18.23-44.65,18.23l3.95-7.56l30.64-14.77L313.95,219.6z"/>
</svg>
