<?xml version="1.0" encoding="utf-8"?>
<svg viewBox="163.095 130.744 202.39 215.781" xmlns="http://www.w3.org/2000/svg">
  <defs>
    <style type="text/css">
	.st0{fill:#12033C;}
	.st1{fill:none;stroke:#FFFFFF;stroke-width:13.0089;stroke-linecap:round;stroke-linejoin:round;stroke-miterlimit:10;}
	.st2{fill:#FFFFFF;}
</style>
  </defs>
  <rect x="163.095" y="130.744" class="st0" width="202.39" height="215.781" style=""/>
  <path class="st1" d="M 355.38 176.01 C 355.38 176.01 347.3 191.78 323.41 195.54 C 289.16 200.92 284.23 215.57 284.23 215.57"/>
  <path class="st1" d="M 172.63 177.27 C 172.63 177.27 180.98 192.9 204.94 196.23 C 239.28 201 244.47 215.56 244.47 215.56"/>
  <path class="st2" d="M 265.27 293.28 C 265.27 293.28 275.13 278.21 275.69 269.09 C 276.25 259.97 270.48 251.79 265.46 251.79 C 260.44 251.79 253.18 260.91 254.48 269.46 C 255.78 278.03 265.27 293.28 265.27 293.28 Z"/>
  <g>
    <path class="st2" d="M338.78,206.58c20.18,31.2,13.94,63.8-16.83,84.71c-5.07,3.3-10.18-3.8-5.42-7.55 c10.94-8.09,20.26-18.95,22.44-32.58c2.2-13.04-2.44-26.99-9.99-37.65C324.43,206.84,333.98,200.04,338.78,206.58L338.78,206.58z"/>
    <path class="st2" d="M 202.402 291.518 C 220.449 260.318 214.869 227.718 187.35 206.808 C 182.816 203.508 178.246 210.608 182.503 214.358 C 192.287 222.448 200.622 233.308 202.572 246.938 C 204.539 259.978 200.39 273.928 193.638 284.588 C 189.568 291.258 198.109 298.058 202.402 291.518 Z" style="transform-box: fill-box; transform-origin: 50% 50%;" transform="matrix(-1, 0, 0, -1, -0.000014, 0.000013)"/>
  </g>
  <path class="st2" d="M 264.37 217.74 C 264.37 217.74 257.95 201.83 246.51 194.3 C 236.49 187.7 229.69 186.18 226.04 185 C 218.6 182.58 220.83 177.56 227.53 174.95 C 234.23 172.35 249.11 168.25 263.25 168.62 C 277.39 168.99 288.55 169.74 297.11 173.83 C 305.67 177.92 313.48 182.57 298.6 185.36 C 287.94 187.36 285.76 190.01 277.39 196.89 C 270.85 202.28 264.37 217.74 264.37 217.74 Z"/>
  <path class="st2" d="M 249.95 234.67 C 249.95 245.25 241.79 253.83 231.72 253.83 C 221.65 253.83 213.49 245.25 213.49 234.67 C 213.49 228.3 216.45 222.65 221 219.17 C 221.8 218.56 222.64 218.02 223.53 217.55 C 225.99 216.24 249.56 230.65 249.64 231.11 C 249.84 232.26 249.95 233.45 249.95 234.67 Z"/>
  <ellipse class="st0" cx="234.32" cy="232.72" rx="9.3" ry="9.77"/>
  <path class="st0" d="M 214.6 219.6 C 216.09 219.97 259.25 237.83 259.25 237.83 L 252.09 227.6 L 223.07 214.39 L 214.6 219.6 Z"/>
  <path class="st2" d="M 278.6 234.67 C 278.6 245.25 286.76 253.83 296.83 253.83 C 306.9 253.83 315.06 245.25 315.06 234.67 C 315.06 228.19 312 222.47 307.32 219 C 306.5 218.39 278.97 230.7 278.87 231.32 C 278.69 232.41 278.6 233.53 278.6 234.67 Z"/>
  <ellipse class="st0" cx="294.23" cy="232.72" rx="9.3" ry="9.77"/>
  <path class="st0" d="M 313.95 219.6 C 312.46 219.97 269.3 237.83 269.3 237.83 L 273.25 230.27 L 303.89 215.5 L 313.95 219.6 Z"/>
</svg>