<?xml version="1.0" encoding="utf-8"?>
<svg viewBox="116.378 123.263 299.05 299.05" xmlns="http://www.w3.org/2000/svg">
  <defs>
    <style type="text/css">
	.st0{fill:#000000;}
	.st1{fill:none;stroke:#FFFFFF;stroke-width:13.0089;stroke-linecap:round;stroke-linejoin:round;stroke-miterlimit:10;}
	.st2{fill:#FFFFFF;}
</style>
  </defs>
  <ellipse style="stroke: rgb(0, 0, 0); fill: rgb(0, 0, 0);" cx="265.903" cy="272.788" rx="149.525" ry="149.525"/>
  <path class="st1" d="M 355.38 177.01 C 355.38 177.01 347.3 192.78 323.41 196.54 C 289.16 201.92 284.23 216.57 284.23 216.57"/>
  <path class="st1" d="M 172.63 178.27 C 172.63 178.27 180.98 193.9 204.94 197.23 C 239.28 202 244.47 216.56 244.47 216.56"/>
  <g transform="matrix(1, 0, 0, 1, 0, 1)">
    <path class="st2" d="M343.57,265.8c5.59,6.83,8.56,15.58,9.9,24.15c3.51,24.57-6.62,48.44-19.57,68.6 c-3.69,5.37-11.72,0.38-8.47-5.32c7.67-12.47,13.99-26.12,16.47-40.49c1.75-10.44,1.38-21.09-2.57-30.79 c-1.18-2.86-2.76-5.81-4.63-8.07C329.55,267.85,338,260.11,343.57,265.8L343.57,265.8z"/>
  </g>
  <path class="st2" d="M 265.27 294.28 C 265.27 294.28 275.13 279.21 275.69 270.09 C 276.25 260.97 270.48 252.79 265.46 252.79 C 260.44 252.79 253.18 261.91 254.48 270.46 C 255.78 279.03 265.27 294.28 265.27 294.28 Z"/>
  <g transform="matrix(1, 0, 0, 1, 0, 1)">
    <path class="st2" d="M198.37,211.07c-7.53,17.43-13.71,40.46-3.14,57.75c9.22,13.68,25.09,18.16,39.38,26.02 c13.2,6.72,26.13,15.33,36.63,26.05c10.55,10.58,19.92,23.05,26.34,36.56c3.87,7.98,6.94,16.44,8.66,25.18 c0.25,1.36,0.49,2.65,0.64,4.07c0.29,2.82-1.76,5.35-4.58,5.64c-2.83,0.3-5.33-1.78-5.64-4.57c-1.55-8.9-4.79-17.44-8.83-25.52 c-10.39-20.57-26.62-38.31-46.2-50.52c-8.01-5.05-16.48-9.15-25.03-13.45c-8.97-4.56-18.48-9.6-25.47-17.24 c-15.14-16.19-13.31-40.68-5.49-59.8c1.9-4.75,4-9.15,6.7-13.57c1-1.63,3.14-2.15,4.77-1.15 C198.65,207.48,199.18,209.47,198.37,211.07L198.37,211.07z"/>
  </g>
  <g transform="matrix(1, 0, 0, 1, 0, 1)">
    <path class="st2" d="M203.85,282.28c-2.1,14.6,3.48,30.01,14.77,39.61c4.02,3.56,8.65,6.88,12.8,10.31 c18.94,15.04,34.91,31.15,38.77,56.16c0.75,5.4-7.03,6.9-8.28,1.52c-1.02-5.18-2.56-10.19-4.75-14.9 c-6.78-14.67-19.18-24.87-32.04-34.75c-4.36-3.4-9.19-6.68-13.44-10.26c-13.26-10.68-20.69-27.94-20.06-44.92 c0.07-1.7,0.15-3.24,0.44-4.98C193.7,272.2,205.14,274.31,203.85,282.28L203.85,282.28z"/>
  </g>
  <g transform="matrix(1, 0, 0, 1, 0, 1)">
    <path class="st2" d="M177.44,299.37c8.62,25.74,26.37,46.41,42.94,67.32c2.53,3.03,5.03,6.15,7.32,9.68 c-22.94-8.83-42.14-28.6-49.4-52.23C176.11,316.16,174.88,307.41,177.44,299.37L177.44,299.37z"/>
  </g>
  <g transform="matrix(1, 0, 0, 1, 0, 1)">
    <path class="st2" d="M338.78,206.58c20.18,31.2,13.94,63.8-16.83,84.71c-5.07,3.3-10.18-3.8-5.42-7.55 c10.94-8.09,20.26-18.95,22.44-32.58c2.2-13.04-2.44-26.99-9.99-37.65C324.43,206.84,333.98,200.04,338.78,206.58L338.78,206.58z"/>
  </g>
  <path class="st2" d="M 264.37 218.74 C 264.37 218.74 257.95 202.83 246.51 195.3 C 236.49 188.7 229.69 187.18 226.04 186 C 218.6 183.58 220.83 178.56 227.53 175.95 C 234.23 173.35 249.11 169.25 263.25 169.62 C 277.39 169.99 288.55 170.74 297.11 174.83 C 305.67 178.92 313.48 183.57 298.6 186.36 C 287.94 188.36 285.76 191.01 277.39 197.89 C 270.85 203.28 264.37 218.74 264.37 218.74 Z"/>
  <path class="st2" d="M 249.95 235.67 C 249.95 246.25 241.79 254.83 231.72 254.83 C 221.65 254.83 213.49 246.25 213.49 235.67 C 213.49 229.3 216.45 223.65 221 220.17 C 221.8 219.56 222.64 219.02 223.53 218.55 C 225.99 217.24 249.56 231.65 249.64 232.11 C 249.84 233.26 249.95 234.45 249.95 235.67 Z"/>
  <ellipse class="st0" cx="234.32" cy="233.72" rx="9.3" ry="9.77"/>
  <path class="st0" d="M 214.6 220.6 C 216.09 220.97 259.25 238.83 259.25 238.83 L 252.09 228.6 L 223.07 215.39 L 214.6 220.6 Z"/>
  <path class="st2" d="M 278.6 235.67 C 278.6 246.25 286.76 254.83 296.83 254.83 C 306.9 254.83 315.06 246.25 315.06 235.67 C 315.06 229.19 312 223.47 307.32 220 C 306.5 219.39 278.97 231.7 278.87 232.32 C 278.69 233.41 278.6 234.53 278.6 235.67 Z"/>
  <ellipse class="st0" cx="294.23" cy="233.72" rx="9.3" ry="9.77"/>
  <path class="st0" d="M 313.95 220.6 C 312.46 220.97 269.3 238.83 269.3 238.83 L 273.25 231.27 L 303.89 216.5 L 313.95 220.6 Z"/>
</svg>